<svg width="174" height="60" viewBox="0 0 174 60" fill="none" xmlns="http://www.w3.org/2000/svg">
<path fill-rule="evenodd" clip-rule="evenodd" d="M13.8149 3.91296H160.527C163.787 3.91296 164.967 4.27818 166.159 4.95644C167.336 5.62374 168.298 6.65546 168.921 7.91729C169.553 9.19555 169.894 10.4608 169.894 13.9434V46.0563C169.894 49.5389 169.553 50.8041 168.921 52.0823C168.298 53.3442 167.336 54.3759 166.159 55.0432C164.967 55.7214 163.787 56.0866 160.539 56.0866H13.8028C10.5547 56.0866 9.37464 55.7214 8.18245 55.0432C7.00558 54.3759 6.04333 53.3442 5.42097 52.0823C4.78838 50.8041 4.44775 49.5389 4.44775 46.0563V13.9434C4.44775 10.4608 4.78838 9.19555 5.42097 7.91729C6.04333 6.65546 7.00558 5.62374 8.18245 4.95644C9.37464 4.27818 10.5547 3.91296 13.8028 3.91296H13.8149Z" fill="#293145"/>
<path d="M41.3688 30.039C41.3931 27.5999 42.5853 25.3564 44.5195 24.0782C43.9136 23.1515 43.114 22.3894 42.1847 21.8527C41.2554 21.316 40.222 21.0195 39.1669 20.9869C36.9285 20.726 34.7509 22.4217 33.6074 22.4217C32.4396 22.4217 30.6756 21.013 28.7778 21.0521C27.5501 21.095 26.3535 21.4779 25.3047 22.1636C24.2558 22.8493 23.3904 23.8145 22.7926 24.9651C20.2014 29.7781 22.1357 36.8346 24.6174 40.7216C25.8582 42.6129 27.2937 44.7389 29.2036 44.6607C31.0527 44.5824 31.7583 43.3955 33.9845 43.3955C36.2108 43.3955 36.8555 44.6607 38.7898 44.6215C40.7848 44.5824 42.0379 42.7042 43.2422 40.7868C44.1303 39.4303 44.8237 37.9303 45.2738 36.352C44.1167 35.827 43.1294 34.9484 42.435 33.8258C41.7406 32.7031 41.3697 31.3861 41.3688 30.039V30.039ZM37.7071 18.4304C38.7948 17.0333 39.3316 15.2364 39.2034 13.4217C37.5368 13.6173 36.0039 14.4652 34.9091 15.8086C34.3702 16.4655 33.9574 17.2298 33.6944 18.058C33.4313 18.8861 33.3232 19.7617 33.3763 20.6347C34.2068 20.6436 35.0284 20.4498 35.7787 20.0679C36.529 19.6859 37.1885 19.126 37.7071 18.4304V18.4304Z" fill="white"/>
<path d="M66.8552 38.6608H61.1011L59.7143 43.0434H57.2812L62.7312 26.8434H65.2738L70.7237 43.0434H68.242L66.8552 38.6608ZM61.6972 36.639H66.2591L64.0086 29.5304H63.9478L61.6972 36.639ZM82.4996 37.1347C82.4996 40.7999 80.6748 43.1607 77.9012 43.1607C77.2011 43.2008 76.5047 43.0287 75.8916 42.6642C75.2784 42.2998 74.7734 41.7577 74.4341 41.0999H74.3855V46.9433H72.1227V31.226H74.3125V33.1825H74.349C74.7035 32.5257 75.218 31.9845 75.8372 31.617C76.4565 31.2494 77.1573 31.0691 77.8647 31.0956C80.6627 31.0956 82.4996 33.4695 82.4996 37.1347ZM80.1761 37.1347C80.1761 34.7477 79.0204 33.1695 77.2564 33.1695C75.5411 33.1695 74.3733 34.7738 74.3733 37.1347C74.3733 39.5086 75.5411 41.1129 77.2686 41.1129C79.0204 41.1129 80.1761 39.5477 80.1761 37.1347ZM94.6161 37.1347C94.6161 40.7999 92.7913 43.1607 90.0298 43.1607C89.3298 43.2008 88.6334 43.0287 88.0202 42.6642C87.4071 42.2998 86.902 41.7577 86.5628 41.0999H86.5019V46.9433H84.2514V31.226H86.4411V33.1825H86.4776C86.8312 32.5277 87.3437 31.9878 87.9606 31.6204C88.5775 31.2529 89.2758 31.0715 89.9812 31.0956C92.7791 31.0956 94.6161 33.4695 94.6161 37.1347V37.1347ZM92.3047 37.1347C92.3047 34.7477 91.149 33.1695 89.3851 33.1695C87.6576 33.1695 86.5019 34.7738 86.5019 37.1347C86.5019 39.5086 87.6576 41.1129 89.3851 41.1129C91.149 41.1129 92.3047 39.5477 92.3047 37.1347ZM102.633 38.5303C102.803 40.1347 104.251 41.1912 106.246 41.1912C108.156 41.1912 109.531 40.1347 109.531 38.6869C109.531 37.4216 108.691 36.6782 106.733 36.1564L104.786 35.6477C102 34.9303 100.723 33.5477 100.723 31.2912C100.723 28.4869 102.986 26.5695 106.209 26.5695C109.409 26.5695 111.599 28.4869 111.672 31.2912H109.385C109.251 29.6739 107.998 28.6826 106.185 28.6826C104.36 28.6826 103.12 29.6739 103.12 31.1217C103.12 32.2564 103.91 32.9477 105.857 33.4564L107.523 33.8869C110.625 34.6695 111.903 36.013 111.903 38.3738C111.903 41.4129 109.652 43.3042 106.076 43.3042C102.73 43.3042 100.468 41.4521 100.322 38.5303H102.633V38.5303ZM116.793 28.4347V31.226H118.886V33.1434H116.793V39.6651C116.793 40.6695 117.207 41.139 118.131 41.139C118.375 41.139 118.618 41.1129 118.861 41.0868V42.9912C118.46 43.0825 118.034 43.1216 117.62 43.1086C115.382 43.1086 114.518 42.1955 114.518 39.9129V33.1434H112.912V31.226H114.518V28.4347H116.793ZM120.09 37.1347C120.09 33.4173 122.134 31.0825 125.321 31.0825C128.508 31.0825 130.552 33.4304 130.552 37.1347C130.552 40.8651 128.52 43.1868 125.321 43.1868C122.121 43.1868 120.09 40.8651 120.09 37.1347ZM128.241 37.1347C128.241 34.5912 127.146 33.0912 125.321 33.0912C123.496 33.0912 122.401 34.5912 122.401 37.1347C122.401 39.6912 123.496 41.1781 125.321 41.1781C127.146 41.1781 128.241 39.6912 128.241 37.1347ZM132.413 31.226H134.566V33.2347H134.615C134.919 31.9434 136.026 31.0565 137.267 31.1086C137.523 31.1086 137.79 31.1347 138.046 31.1999V33.4695C137.715 33.3577 137.37 33.3048 137.024 33.313C136.694 33.2972 136.365 33.3586 136.06 33.4928C135.754 33.6271 135.48 33.8309 135.255 34.0903C135.031 34.3497 134.862 34.6583 134.759 34.9948C134.657 35.3313 134.625 35.6877 134.664 36.039V43.0434H132.413V31.226V31.226ZM148.459 39.5738C148.155 41.7129 146.208 43.1868 143.715 43.1868C140.515 43.1868 138.532 40.8781 138.532 37.1869C138.532 33.4825 140.527 31.0825 143.629 31.0825C146.671 31.0825 148.593 33.326 148.593 36.9129V37.7347H140.807V37.8912C140.772 38.3258 140.824 38.7633 140.959 39.1748C141.094 39.5863 141.309 39.9623 141.589 40.278C141.87 40.5938 142.21 40.8419 142.587 41.0061C142.964 41.1703 143.369 41.2467 143.775 41.2303C144.87 41.3347 145.904 40.6695 146.318 39.5738H148.459V39.5738ZM140.819 36.0521H146.33C146.35 35.6613 146.295 35.2702 146.168 34.9034C146.04 34.5366 145.844 34.2019 145.59 33.9203C145.337 33.6386 145.032 33.4162 144.694 33.2668C144.357 33.1174 143.994 33.0443 143.629 33.0521C142.887 33.0521 142.176 33.3682 141.651 33.9308C141.126 34.4934 140.831 35.2564 140.831 36.0521H140.819Z" fill="white"/>
<path d="M61.4167 14.6476C61.8905 14.6126 62.3657 14.6907 62.8079 14.8763C63.2502 15.0618 63.6486 15.3503 63.9744 15.7208C64.3002 16.0913 64.5453 16.5347 64.692 17.019C64.8387 17.5033 64.8835 18.0164 64.823 18.5215C64.823 20.9998 63.57 22.4345 61.4167 22.4345H58.7891V14.6476H61.4167V14.6476ZM59.9204 21.3258H61.2829C61.6209 21.3468 61.959 21.287 62.2728 21.1509C62.5866 21.0147 62.8683 20.8056 63.0976 20.5386C63.3268 20.2715 63.498 19.9532 63.5986 19.6067C63.6992 19.2601 63.7268 18.8939 63.6795 18.5345C63.7268 18.1752 63.6992 17.809 63.5986 17.4624C63.498 17.1159 63.3268 16.7976 63.0976 16.5305C62.8683 16.2635 62.5866 16.0543 62.2728 15.9182C61.959 15.7821 61.6209 15.7223 61.2829 15.7433H59.9204V21.3258ZM66.1003 19.4867C66.076 19.1067 66.1248 18.7255 66.2437 18.3666C66.3626 18.0076 66.549 17.6788 66.7915 17.4004C67.0339 17.122 67.3271 16.9001 67.6529 16.7483C67.9788 16.5965 68.3302 16.5182 68.6854 16.5182C69.0406 16.5182 69.3921 16.5965 69.7179 16.7483C70.0437 16.9001 70.3369 17.122 70.5793 17.4004C70.8218 17.6788 71.0082 18.0076 71.1271 18.3666C71.246 18.7255 71.2948 19.1067 71.2705 19.4867C71.2948 19.8667 71.246 20.248 71.1271 20.6069C71.0082 20.9658 70.8218 21.2946 70.5793 21.573C70.3369 21.8514 70.0437 22.0734 69.7179 22.2251C69.3921 22.3769 69.0406 22.4552 68.6854 22.4552C68.3302 22.4552 67.9788 22.3769 67.6529 22.2251C67.3271 22.0734 67.0339 21.8514 66.7915 21.573C66.549 21.2946 66.3626 20.9658 66.2437 20.6069C66.1248 20.248 66.076 19.8667 66.1003 19.4867V19.4867ZM70.1513 19.4867C70.1513 18.2215 69.6282 17.478 68.6915 17.478C67.7426 17.478 67.2195 18.2215 67.2195 19.4867C67.2195 20.778 67.7426 21.5084 68.6793 21.5084C69.6282 21.5084 70.1513 20.765 70.1513 19.4867V19.4867ZM78.1316 22.4345H77.0125L75.8811 18.1041H75.7959L74.6646 22.4345H73.5697L72.0491 16.565H73.1439L74.1171 21.0389H74.2023L75.3337 16.5519H76.3677L77.4991 21.0389H77.5842L78.5574 16.5519H79.6401L78.1316 22.4345ZM80.9053 16.565H81.9515V17.4911H82.0367C82.3165 16.7998 82.9734 16.3824 83.6668 16.4476C83.9332 16.4249 84.2009 16.4669 84.45 16.5705C84.6991 16.6741 84.9232 16.8366 85.1056 17.046C85.2881 17.2553 85.4241 17.5061 85.5035 17.7797C85.583 18.0532 85.6038 18.3425 85.5646 18.6259V22.4345H84.4697V18.9128C84.4697 17.9737 84.1047 17.5041 83.3018 17.5041C83.1204 17.4935 82.9389 17.5254 82.7701 17.5975C82.6012 17.6696 82.449 17.7802 82.324 17.9216C82.199 18.0631 82.1042 18.232 82.0462 18.4167C81.9882 18.6014 81.9683 18.7973 81.988 18.9911V22.4345H80.9053V16.565ZM87.292 14.2693H88.3625V22.4345H87.2798L87.292 14.2693ZM89.871 19.4867C89.8467 19.1067 89.8955 18.7255 90.0144 18.3666C90.1333 18.0076 90.3197 17.6788 90.5622 17.4004C90.8046 17.122 91.0978 16.9001 91.4236 16.7483C91.7494 16.5965 92.1009 16.5182 92.4561 16.5182C92.8113 16.5182 93.1628 16.5965 93.4886 16.7483C93.8144 16.9001 94.1076 17.122 94.35 17.4004C94.5925 17.6788 94.7789 18.0076 94.8978 18.3666C95.0167 18.7255 95.0655 19.1067 95.0412 19.4867C95.0655 19.8667 95.0167 20.248 94.8978 20.6069C94.7789 20.9658 94.5925 21.2946 94.35 21.573C94.1076 21.8514 93.8144 22.0734 93.4886 22.2251C93.1628 22.3769 92.8113 22.4552 92.4561 22.4552C92.1009 22.4552 91.7494 22.3769 91.4236 22.2251C91.0978 22.0734 90.8046 21.8514 90.5622 21.573C90.3197 21.2946 90.1333 20.9658 90.0144 20.6069C89.8955 20.248 89.8467 19.8667 89.871 19.4867ZM93.922 19.4867C93.922 18.2215 93.3867 17.478 92.4622 17.478C91.5133 17.478 90.9902 18.2215 90.9902 19.4867C90.9902 20.778 91.5133 21.5084 92.45 21.5084C93.3867 21.5084 93.922 20.765 93.922 19.4867V19.4867ZM96.1726 20.765C96.1726 19.7215 96.9025 19.1085 98.2163 19.0172L99.7005 18.9258V18.4172C99.7005 17.8041 99.3112 17.4519 98.5691 17.4519C97.9608 17.4519 97.5472 17.6867 97.4377 18.1041H96.3794C96.501 17.0867 97.3769 16.4476 98.6178 16.4476C99.9924 16.4476 100.771 17.178 100.771 18.4172V22.4345H99.7248V21.5997H99.6396C99.2868 22.2128 98.6664 22.565 97.9973 22.5258C97.7672 22.5514 97.5347 22.5249 97.3147 22.4481C97.0947 22.3712 96.8922 22.2458 96.7202 22.0799C96.5483 21.9139 96.4107 21.7112 96.3164 21.4847C96.222 21.2582 96.173 21.013 96.1726 20.765V20.765ZM99.7005 20.2693V19.7737L98.3623 19.865C97.608 19.9171 97.2674 20.2041 97.2674 20.7128C97.2674 21.2345 97.6932 21.5476 98.2771 21.5476C98.4495 21.5673 98.6237 21.5496 98.7895 21.4955C98.9553 21.4414 99.1092 21.352 99.2421 21.2327C99.375 21.1134 99.484 20.9666 99.5628 20.8011C99.6415 20.6355 99.6884 20.4547 99.7005 20.2693V20.2693ZM102.194 19.4867C102.194 17.6346 103.082 16.4606 104.469 16.4606C105.163 16.4215 105.82 16.8259 106.148 17.4911H106.221V14.2693H107.316V22.4345H106.27V21.5084H106.184C105.832 22.1606 105.175 22.5519 104.469 22.5258C103.07 22.5258 102.194 21.3519 102.194 19.4867V19.4867ZM103.313 19.4867C103.313 20.7389 103.861 21.4824 104.773 21.4824C105.686 21.4824 106.245 20.7258 106.245 19.4998C106.245 18.2737 105.674 17.5041 104.773 17.5041C103.861 17.5041 103.313 18.2606 103.313 19.4867ZM111.78 19.4867C111.756 19.1067 111.805 18.7255 111.924 18.3666C112.043 18.0076 112.229 17.6788 112.472 17.4004C112.714 17.122 113.007 16.9001 113.333 16.7483C113.659 16.5965 114.01 16.5182 114.366 16.5182C114.721 16.5182 115.072 16.5965 115.398 16.7483C115.724 16.9001 116.017 17.122 116.259 17.4004C116.502 17.6788 116.688 18.0076 116.807 18.3666C116.926 18.7255 116.975 19.1067 116.951 19.4867C116.975 19.8667 116.926 20.248 116.807 20.6069C116.688 20.9658 116.502 21.2946 116.259 21.573C116.017 21.8514 115.724 22.0734 115.398 22.2251C115.072 22.3769 114.721 22.4552 114.366 22.4552C114.01 22.4552 113.659 22.3769 113.333 22.2251C113.007 22.0734 112.714 21.8514 112.472 21.573C112.229 21.2946 112.043 20.9658 111.924 20.6069C111.805 20.248 111.756 19.8667 111.78 19.4867ZM115.831 19.4867C115.831 18.2215 115.296 17.478 114.372 17.478C113.423 17.478 112.9 18.2215 112.9 19.4867C112.9 20.778 113.423 21.5084 114.359 21.5084C115.296 21.5084 115.831 20.765 115.831 19.4867V19.4867ZM118.398 16.565H119.432V17.4911H119.517C119.797 16.7998 120.454 16.3824 121.16 16.4476C121.425 16.4269 121.691 16.4705 121.939 16.575C122.187 16.6795 122.409 16.8423 122.59 17.0514C122.771 17.2606 122.906 17.5106 122.985 17.7831C123.064 18.0556 123.084 18.3436 123.045 18.6259V22.4345H121.975V18.9128C121.975 17.9737 121.586 17.5041 120.783 17.5041C120.602 17.4955 120.422 17.5288 120.255 17.6017C120.087 17.6747 119.937 17.7856 119.813 17.9268C119.689 18.0681 119.596 18.2363 119.538 18.42C119.481 18.6037 119.462 18.7985 119.481 18.9911V22.4345H118.386V16.565H118.398ZM129.164 15.0911V16.5911H130.344V17.5563H129.164V20.5824C129.164 21.1954 129.396 21.4693 129.931 21.4693L130.344 21.4432V22.4084C130.15 22.4476 129.955 22.4606 129.761 22.4606C128.544 22.4606 128.082 22.0041 128.082 20.8824V17.5563H127.206V16.5911H128.082V15.0911H129.164V15.0911ZM131.816 14.2693H132.899V17.5041H132.984C133.276 16.8128 133.945 16.3824 134.651 16.4606C134.915 16.4448 135.179 16.4916 135.425 16.5978C135.67 16.704 135.891 16.8668 136.071 17.0748C136.251 17.2828 136.386 17.5308 136.467 17.8012C136.547 18.0715 136.571 18.3575 136.537 18.6389V22.4215H135.454V18.9258C135.454 17.9867 135.04 17.5172 134.286 17.5172C134.1 17.4992 133.912 17.5253 133.736 17.5936C133.56 17.662 133.4 17.7709 133.268 17.9128C133.136 18.0546 133.034 18.2259 132.97 18.4145C132.907 18.603 132.882 18.8043 132.899 19.0041V22.4345H131.816V14.2693ZM142.838 20.8432C142.69 21.3788 142.372 21.8418 141.938 22.1516C141.505 22.4614 140.984 22.5985 140.466 22.5389C140.106 22.5479 139.748 22.4732 139.417 22.3199C139.087 22.1665 138.791 21.9382 138.551 21.6507C138.31 21.3631 138.131 21.0231 138.025 20.654C137.918 20.285 137.888 19.8956 137.936 19.5128C137.889 19.1281 137.919 18.7371 138.025 18.3662C138.131 17.9952 138.31 17.6529 138.55 17.3624C138.789 17.0719 139.085 16.8399 139.415 16.6821C139.746 16.5243 140.104 16.4443 140.466 16.4476C141.986 16.4476 142.899 17.5563 142.899 19.4085V19.7998H139.043V19.878C139.026 20.0937 139.051 20.3107 139.117 20.5153C139.183 20.7198 139.288 20.9073 139.425 21.0658C139.563 21.2242 139.729 21.3501 139.915 21.4353C140.1 21.5205 140.301 21.5632 140.502 21.5606C141.025 21.6258 141.536 21.3389 141.804 20.8432H142.838V20.8432ZM139.043 18.9519H141.804C141.818 18.7555 141.793 18.5583 141.731 18.3727C141.67 18.187 141.573 18.0171 141.448 17.8736C141.322 17.7302 141.17 17.6163 141.001 17.5392C140.832 17.4621 140.65 17.4235 140.466 17.4259C140.278 17.4223 140.091 17.4594 139.917 17.5348C139.743 17.6103 139.585 17.7225 139.452 17.865C139.319 18.0074 139.215 18.177 139.144 18.3638C139.074 18.5505 139.039 18.7506 139.043 18.9519V18.9519Z" fill="white"/>
</svg>
