<svg width="173" height="60" viewBox="0 0 173 60" fill="none" xmlns="http://www.w3.org/2000/svg">
<path fill-rule="evenodd" clip-rule="evenodd" d="M13.0166 3.91296H159.728C162.989 3.91296 164.169 4.27818 165.361 4.95644C166.538 5.62374 167.5 6.65546 168.122 7.91729C168.755 9.19555 169.095 10.4608 169.095 13.9434V46.0563C169.095 49.5389 168.755 50.8041 168.122 52.0823C167.5 53.3442 166.538 54.3759 165.361 55.0432C164.169 55.7214 162.989 56.0866 159.74 56.0866H13.0044C9.75632 56.0866 8.5763 55.7214 7.38412 55.0432C6.20724 54.3759 5.24499 53.3442 4.62263 52.0823C3.99004 50.8041 3.64941 49.5389 3.64941 46.0563V13.9434C3.64941 10.4608 3.99004 9.19555 4.62263 7.91729C5.24499 6.65546 6.20724 5.62374 7.38412 4.95644C8.5763 4.27818 9.75632 3.91296 13.0044 3.91296H13.0166Z" fill="#293145"/>
<path fill-rule="evenodd" clip-rule="evenodd" d="M22.8216 42.7432L22.9676 42.7823C22.9182 42.7726 22.8694 42.7595 22.8216 42.7432V42.7432ZM43.624 27.8737C44.1714 28.1998 44.512 28.6302 44.6215 29.0737L44.6458 29.2433C44.5972 29.7389 44.2444 30.2346 43.6118 30.6128L24.3909 42.3128C24.0016 42.5606 23.6245 42.665 23.296 42.665C22.9554 42.665 22.6634 42.5476 22.4201 42.3258L22.3471 42.2476C22.0283 41.8352 21.8674 41.3084 21.897 40.7737V17.7129C21.897 17.0086 22.0917 16.4738 22.4201 16.1477C22.6634 15.926 22.9554 15.8086 23.296 15.8086C23.6245 15.8086 24.0016 15.926 24.3909 16.1607L43.6118 27.8737H43.624ZM23.2839 15.652H23.4542H23.2839ZM134.96 42.2084H137.223V25.9042H134.96V42.2084ZM155.397 31.7737L152.794 38.8432H152.721L150.02 31.7737H147.575L151.626 41.6606L149.315 47.1519H151.687L157.928 31.7737H155.397ZM142.527 40.3563C141.785 40.3563 140.75 39.965 140.75 38.9737C140.75 37.7085 142.04 37.2259 143.147 37.2259C144.157 37.2259 144.619 37.4606 145.227 37.7737C145.145 38.4817 144.826 39.1336 144.329 39.6085C143.832 40.0835 143.192 40.3491 142.527 40.3563ZM142.806 31.4215C141.152 31.4215 139.461 32.2041 138.755 33.9128L140.763 34.8259C141.201 33.9128 142.004 33.6259 142.831 33.6259C144.011 33.6259 145.203 34.3693 145.227 35.7128V35.8824C144.497 35.4676 143.682 35.2525 142.855 35.2563C140.69 35.2563 138.476 36.5346 138.476 38.9215C138.476 41.1128 140.264 42.5215 142.247 42.5215C143.78 42.5215 144.619 41.778 145.154 40.9171H145.227V42.1824H147.417V35.9215C147.417 33.0389 145.398 31.4215 142.794 31.4215H142.806ZM128.768 33.7693H125.544V28.1607H128.768C130.471 28.1607 131.444 29.6737 131.444 30.965C131.444 32.2302 130.471 33.7563 128.768 33.7563V33.7693ZM128.719 25.9042H123.269V42.2084H125.544V36.0259H128.707C131.225 36.0259 133.695 34.0693 133.695 30.965C133.695 27.8607 131.225 25.9042 128.707 25.9042H128.719ZM99.0484 40.3563C97.4912 40.3563 96.1774 38.9476 96.1774 37.0172C96.1774 35.0606 97.4912 33.6259 99.0484 33.6259C100.606 33.6259 101.822 35.0606 101.822 37.0172C101.822 38.9476 100.606 40.3563 99.0484 40.3563ZM101.664 32.6867H101.579C101.233 32.2843 100.811 31.9656 100.341 31.7519C99.871 31.5382 99.364 31.4345 98.8537 31.4476C97.5145 31.5019 96.2479 32.1142 95.3233 33.1543C94.3986 34.1945 93.8889 35.5803 93.9025 37.0172C93.8923 38.4492 94.4042 39.8289 95.3291 40.862C96.2541 41.8951 97.5188 42.5 98.8537 42.5476C99.3664 42.5617 99.8758 42.4559 100.346 42.2373C100.817 42.0188 101.238 41.6929 101.579 41.2824H101.664V42.078C101.664 44.2041 100.606 45.3389 98.9024 45.3389C98.3331 45.3272 97.7799 45.1335 97.314 44.7826C96.848 44.4317 96.4903 43.9396 96.2869 43.3693L94.3161 44.2432C94.6875 45.2192 95.3227 46.0537 96.14 46.6394C96.9573 47.2252 97.9193 47.5354 98.9024 47.5302C101.567 47.5302 103.817 45.8345 103.817 41.7519V31.7867H101.664V32.6998V32.6867ZM105.386 42.2084H107.661V25.9042H105.386V42.2084ZM111.007 36.8215C110.982 36.4181 111.033 36.0134 111.156 35.6312C111.279 35.249 111.472 34.897 111.723 34.5958C111.975 34.2945 112.28 34.0501 112.62 33.8769C112.961 33.7036 113.331 33.605 113.707 33.5867C114.62 33.5867 115.386 34.0693 115.629 34.7606L111.007 36.8346V36.8215ZM118.062 34.9824C117.637 33.7433 116.323 31.4607 113.634 31.4607C110.97 31.4607 108.756 33.6911 108.756 36.9911C108.756 40.1085 110.946 42.5476 113.89 42.5476C116.262 42.5476 117.637 40.9824 118.208 40.0824L116.445 38.8302C116.179 39.3003 115.803 39.6881 115.356 39.9557C114.908 40.2232 114.403 40.3613 113.89 40.3563C112.734 40.3563 111.907 39.7954 111.384 38.6737L118.306 35.6085L118.062 34.9824V34.9824ZM62.9544 33.1563V35.5041H68.1976C68.1219 36.6067 67.7019 37.6498 67.0054 38.465C66.4782 39.0409 65.8442 39.4917 65.1442 39.7883C64.4443 40.0848 63.6942 40.2206 62.9422 40.1867C62.1798 40.1851 61.4253 40.0213 60.7223 39.7049C60.0193 39.3886 59.3818 38.9259 58.8467 38.3437C58.3116 37.7614 57.8895 37.0712 57.6048 36.3129C57.3201 35.5546 57.1785 34.7432 57.1881 33.9259C57.1738 32.7122 57.493 31.5208 58.1059 30.5003C58.7188 29.4798 59.5983 28.6753 60.6347 28.1872C61.6712 27.699 62.8187 27.5487 63.9343 27.7551C65.0499 27.9614 66.0841 28.5153 66.9081 29.3476L68.453 27.6911C67.728 26.9222 66.8671 26.3162 65.9208 25.9086C64.9745 25.5009 63.9619 25.2999 62.9422 25.3172C60.8015 25.317 58.7465 26.2198 57.2214 27.8305C55.6963 29.4413 54.8235 31.6308 54.7916 33.9259C54.8235 36.2209 55.6963 38.4104 57.2214 40.0212C58.7465 41.632 60.8015 42.5348 62.9422 42.5345C65.3388 42.5345 67.1392 41.6997 68.5504 40.1215C69.8293 38.623 70.5105 36.6473 70.4481 34.6172C70.4481 34.0693 70.4116 33.5737 70.3265 33.1563H62.9422H62.9544ZM76.4212 40.3563C74.8519 40.3563 73.5016 38.9737 73.5016 36.9911C73.5016 34.9954 74.8519 33.6389 76.4212 33.6389C78.0027 33.6389 79.3408 34.9954 79.3408 36.9911C79.3408 38.9737 78.0027 40.3563 76.4212 40.3563V40.3563ZM76.4212 31.4476C75.738 31.4354 75.0593 31.5702 74.4256 31.8441C73.7918 32.118 73.2156 32.5254 72.7313 33.0423C72.247 33.5592 71.8643 34.175 71.6058 34.8532C71.3474 35.5315 71.2185 36.2584 71.2267 36.9911C71.2168 37.7248 71.3445 38.4532 71.6022 39.1329C71.8599 39.8127 72.2424 40.4301 72.7269 40.9483C73.2114 41.4666 73.7881 41.8752 74.4227 42.1499C75.0573 42.4247 75.7369 42.5599 76.4212 42.5476C77.1055 42.5599 77.7851 42.4247 78.4197 42.1499C79.0543 41.8752 79.631 41.4666 80.1155 40.9483C80.6 40.4301 80.9825 39.8127 81.2402 39.1329C81.4979 38.4532 81.6256 37.7248 81.6157 36.9911C81.6239 36.2584 81.495 35.5315 81.2366 34.8532C80.9781 34.175 80.5954 33.5592 80.1111 33.0423C79.6268 32.5254 79.0507 32.118 78.4169 31.8441C77.7831 31.5702 77.1045 31.4354 76.4212 31.4476V31.4476ZM87.7591 40.3563C86.1776 40.3563 84.8395 38.9737 84.8395 36.9911C84.8395 34.9954 86.1776 33.6389 87.7591 33.6389C89.3163 33.6389 90.6788 34.9954 90.6788 36.9911C90.6788 38.9737 89.3163 40.3563 87.7591 40.3563ZM87.7591 31.4476C87.0759 31.4354 86.3973 31.5702 85.7635 31.8441C85.1297 32.118 84.5536 32.5254 84.0692 33.0423C83.5849 33.5592 83.2022 34.175 82.9437 34.8532C82.6853 35.5315 82.5564 36.2584 82.5646 36.9911C82.5547 37.7248 82.6824 38.4532 82.9401 39.1329C83.1979 39.8127 83.5803 40.4301 84.0648 40.9483C84.5493 41.4666 85.126 41.8752 85.7606 42.1499C86.3952 42.4247 87.0748 42.5599 87.7591 42.5476C88.4434 42.5599 89.123 42.4247 89.7576 42.1499C90.3923 41.8752 90.9689 41.4666 91.4534 40.9483C91.9379 40.4301 92.3204 39.8127 92.5781 39.1329C92.8358 38.4532 92.9635 37.7248 92.9536 36.9911C92.9619 36.2584 92.8329 35.5315 92.5745 34.8532C92.3161 34.175 91.9333 33.5592 91.449 33.0423C90.9647 32.5254 90.3886 32.118 89.7548 31.8441C89.121 31.5702 88.4424 31.4354 87.7591 31.4476V31.4476Z" fill="white"/>
<path fill-rule="evenodd" clip-rule="evenodd" d="M61.4946 17.126C61.4946 18.1043 61.227 18.8869 60.6796 19.4738C60.0713 20.1651 59.2562 20.5173 58.2709 20.5173C57.322 20.5173 56.5069 20.1651 55.8378 19.4608C55.5163 19.121 55.263 18.7143 55.0935 18.2657C54.9241 17.8171 54.842 17.336 54.8524 16.8521C54.8524 15.8086 55.1809 14.9217 55.85 14.2173C56.5069 13.513 57.3098 13.1608 58.2709 13.1608C58.7331 13.1608 59.1832 13.2652 59.609 13.4608C60.047 13.6565 60.3876 13.9173 60.6431 14.2434L60.0591 14.8565C59.8397 14.5809 59.5646 14.3626 59.2548 14.2179C58.9449 14.0733 58.6085 14.0062 58.2709 14.0217C57.5774 14.0217 56.9813 14.2826 56.4704 14.8043C55.9716 15.326 55.7162 16.0043 55.7162 16.8391C55.7162 17.6739 55.9595 18.3521 56.4704 18.8738C56.9813 19.3956 57.5653 19.6565 58.2709 19.6565C59.0008 19.6565 59.609 19.3956 60.0956 18.8738C60.4119 18.5217 60.6066 18.0521 60.6552 17.4391H58.2709V16.5912H61.446C61.4824 16.7739 61.4946 16.9565 61.4946 17.113" fill="white"/>
<path fill-rule="evenodd" clip-rule="evenodd" d="M61.4944 17.126H61.3849C61.3849 18.0912 61.1173 18.8216 60.6063 19.3955C59.9981 20.0608 59.2317 20.3999 58.2706 20.3999C57.3461 20.3999 56.5675 20.0608 55.9228 19.3825C55.6073 19.0528 55.3591 18.6565 55.1937 18.2187C55.0282 17.781 54.9493 17.3112 54.9617 16.839C54.9617 15.8216 55.278 14.9869 55.9349 14.2956C56.2393 13.9646 56.6034 13.7037 57.005 13.5287C57.4066 13.3538 57.8372 13.2685 58.2706 13.2782C58.7207 13.2782 59.1587 13.3695 59.5723 13.5651C59.9859 13.7608 60.3022 14.0086 60.5577 14.3217L60.6428 14.2434L60.5577 14.1651L59.9859 14.7782L60.0589 14.8564L60.1441 14.7912C59.694 14.2043 59.0492 13.9043 58.2706 13.9043C57.5407 13.9043 56.9203 14.1782 56.3972 14.726C55.8741 15.2608 55.6065 15.9782 55.6065 16.839C55.6065 17.6999 55.8741 18.4042 56.3972 18.9521C56.9203 19.4999 57.5529 19.7738 58.2706 19.7738C59.0249 19.7738 59.6696 19.4999 60.1806 18.9521C60.5212 18.5868 60.7158 18.0782 60.7645 17.4521V17.3216H58.3923V16.7086H61.4579V16.5912L61.3484 16.6173C61.3849 16.7869 61.3971 16.9564 61.3971 17.126H61.6161C61.6161 16.9434 61.6039 16.7608 61.5674 16.5782L61.5552 16.4738H58.149V17.5564H60.6428V17.439H60.5212C60.4847 18.026 60.3022 18.4695 60.0103 18.7825C59.5358 19.2912 58.964 19.539 58.2585 19.539C57.5894 19.539 57.0176 19.2781 56.531 18.7825C56.0444 18.2868 55.8011 17.6477 55.8011 16.839C55.8011 16.0303 56.0444 15.4043 56.531 14.8825C57.0176 14.3869 57.5894 14.139 58.2585 14.139C58.9884 14.139 59.548 14.3999 59.9616 14.9347L60.0467 15.039L60.7037 14.3217L60.7767 14.2564L60.7158 14.1651C60.4244 13.8046 60.0576 13.523 59.6453 13.3434C59.2105 13.1454 58.743 13.0434 58.2706 13.0434C57.2974 13.0434 56.4459 13.4086 55.7768 14.139C55.4421 14.4872 55.1776 14.9053 54.9997 15.3675C54.8218 15.8297 54.7344 16.3261 54.7427 16.826C54.7427 17.8955 55.0834 18.8086 55.7768 19.539C56.1021 19.8916 56.491 20.1694 56.9198 20.3555C57.3485 20.5416 57.8082 20.6322 58.2706 20.6216C59.2803 20.6216 60.1197 20.2564 60.7523 19.539L60.6793 19.4608L60.7523 19.5521C61.3241 18.939 61.6039 18.1173 61.6039 17.1129H61.4944V17.126ZM66.5429 14.1782H63.5503V16.4216H66.251V17.2564H63.5503V19.4999H66.5429V20.3608H62.7109V13.3173H66.5429V14.1782" fill="white"/>
<path fill-rule="evenodd" clip-rule="evenodd" d="M66.5431 14.1782V14.0608H63.441V16.5391H66.1416V17.1391H63.441V19.6173H66.4336V20.2434H62.8205V13.4347H66.4336V14.1782H66.5431V14.0608V14.1913H66.6526V13.2H62.6016V20.4782H66.6526V19.3825H63.6599V17.3738H66.3606V16.3043H63.6599V14.2956H66.6526V14.1782H66.5309H66.5431ZM70.0953 20.3608H69.2559V14.1782H67.4311V13.3173H71.9322V14.1782H70.1075V20.3608" fill="white"/>
<path fill-rule="evenodd" clip-rule="evenodd" d="M70.0954 20.3608V20.2434H69.3655V14.0608H67.5407V13.4347H71.8228V14.0608H69.9981V20.3608H70.0954V20.2434V20.3738H70.217V14.2956H72.0418V13.2H67.3096V14.2956H69.1465V20.4782H70.2049V20.3608H70.0954V20.3608ZM75.2048 20.3608H76.0563V13.3173H75.2048V20.3608Z" fill="white"/>
<path fill-rule="evenodd" clip-rule="evenodd" d="M75.2047 20.3608H75.3142V13.4478H75.9346V20.2434H75.2047V20.3738H75.3142H75.1925V20.4782H76.1657V13.2H75.0952V20.4782H75.2047V20.3608ZM79.791 20.3608H78.9394V14.1782H77.1146V13.3173H81.6157V14.1782H79.791V20.3608Z" fill="white"/>
<path fill-rule="evenodd" clip-rule="evenodd" d="M79.7907 20.3609V20.2435H79.0608V14.0609H77.2239V13.4348H81.506V14.0609H79.6812V20.3609H79.7907V20.2435V20.3739H79.9002V14.2957H81.725V13.2001H77.0049V14.2957H78.8297V20.4783H79.9002V20.3609H79.7785H79.7907ZM85.9706 18.8609C86.4572 19.3826 87.0655 19.6435 87.7589 19.6435C88.4645 19.6435 89.0606 19.3826 89.5472 18.8609C90.0338 18.3392 90.2771 17.6609 90.2771 16.8392C90.2771 16.0174 90.0338 15.3522 89.5472 14.8174C89.0606 14.2957 88.4645 14.0348 87.7589 14.0348C87.0533 14.0348 86.4572 14.2957 85.9706 14.8174C85.484 15.3392 85.2407 16.0174 85.2407 16.8392C85.2407 17.6609 85.484 18.3392 85.9706 18.8609ZM90.1676 19.4479C89.5228 20.1652 88.7199 20.5174 87.7589 20.5174C86.7978 20.5174 85.9949 20.1652 85.3502 19.4479C85.0331 19.1052 84.7836 18.6977 84.6164 18.2495C84.4492 17.8014 84.3678 17.3217 84.377 16.8392C84.3672 16.3577 84.4476 15.879 84.6135 15.4314C84.7794 14.9838 85.0273 14.5765 85.3427 14.2335C85.658 13.8905 86.0344 13.6189 86.4494 13.4346C86.8644 13.2504 87.3097 13.1573 87.7589 13.1609C88.2081 13.1573 88.6533 13.2504 89.0684 13.4346C89.4834 13.6189 89.8597 13.8905 90.1751 14.2335C90.4904 14.5765 90.7384 14.9838 90.9043 15.4314C91.0701 15.879 91.1506 16.3577 91.1408 16.8392C91.1408 17.8696 90.8123 18.7435 90.1676 19.4479Z" fill="white"/>
<path fill-rule="evenodd" clip-rule="evenodd" d="M85.9705 18.8608L85.8975 18.9391C86.4085 19.4869 87.0289 19.7738 87.7588 19.7738C88.4887 19.7738 89.1213 19.4869 89.6201 18.9391C90.131 18.3912 90.3865 17.6869 90.3865 16.8521C90.3865 15.9912 90.131 15.2869 89.6201 14.7391C89.3803 14.4699 89.0911 14.2567 88.7708 14.1131C88.4505 13.9694 88.106 13.8983 87.7588 13.9043C87.0289 13.9043 86.4085 14.1913 85.8975 14.7391C85.6442 15.0155 85.4456 15.344 85.3139 15.705C85.1822 16.0659 85.12 16.4517 85.1311 16.8391C85.1311 17.6869 85.3866 18.4043 85.8975 18.9391L86.0557 18.7825C85.8209 18.5271 85.6373 18.223 85.5159 17.8888C85.3946 17.5547 85.3382 17.1974 85.3501 16.8391C85.3501 16.0565 85.5934 15.4043 86.0557 14.8956C86.276 14.651 86.5409 14.4576 86.8339 14.3274C87.1269 14.1973 87.4417 14.1332 87.7588 14.1391C88.4401 14.1391 88.9997 14.3999 89.4619 14.8956C89.9364 15.4173 90.1675 16.0434 90.1675 16.8521C90.1675 17.6347 89.9242 18.2738 89.4619 18.7825C88.9997 19.2912 88.4401 19.5391 87.7588 19.5391C87.4417 19.545 87.1269 19.4809 86.8339 19.3507C86.5409 19.2206 86.276 19.0272 86.0557 18.7825L85.9705 18.8608ZM90.1675 19.4478L90.0945 19.3695C89.4619 20.0608 88.6955 20.3999 87.7588 20.413C87.325 20.4148 86.8953 20.3235 86.495 20.1444C86.0946 19.9653 85.7318 19.702 85.428 19.3701C85.1241 19.0382 84.8853 18.6444 84.7256 18.2119C84.566 17.7795 84.4888 17.3171 84.4986 16.8521C84.4871 16.386 84.5631 15.9223 84.722 15.4883C84.8809 15.0543 85.1194 14.6589 85.4235 14.3256C85.7275 13.9923 86.0909 13.7279 86.4921 13.548C86.8932 13.368 87.324 13.2763 87.7588 13.2782C88.6955 13.2782 89.4619 13.6173 90.0824 14.3217C90.715 15.013 91.0312 15.8478 91.0312 16.8391C91.0312 17.8434 90.7149 18.6782 90.0945 19.3695L90.2527 19.5391C90.9096 18.8086 91.2502 17.8956 91.2502 16.8391C91.26 16.3421 91.1767 15.8482 91.0053 15.3864C90.8339 14.9245 90.5779 14.5043 90.2524 14.1504C89.9269 13.7965 89.5385 13.5162 89.1102 13.3261C88.6819 13.1359 88.2224 13.0398 87.7588 13.0434C87.2963 13.0416 86.8381 13.139 86.4112 13.3299C85.9843 13.5208 85.5974 13.8014 85.2731 14.1551C84.9489 14.5088 84.694 14.9285 84.5234 15.3894C84.3527 15.8504 84.2698 16.3432 84.2796 16.8391C84.2796 17.8956 84.608 18.7956 85.2771 19.5391C85.934 20.2695 86.7734 20.6347 87.7588 20.6347C88.7442 20.6347 89.5836 20.2695 90.2527 19.5391L90.1675 19.4478ZM92.3329 20.3608V13.3173H93.3548L96.5421 18.7956H96.5786L96.5421 17.4391V13.3173H97.3936V20.3608H96.5056L93.1602 14.6217H93.1237L93.1602 15.9782V20.3608H92.3208" fill="white"/>
<path fill-rule="evenodd" clip-rule="evenodd" d="M92.3331 20.3608H92.4304V13.4478H93.282L96.4814 18.926H96.6882L96.6517 17.4391V13.4347H97.2721V20.2434H96.5665L93.2211 14.5043H93.0143L93.0508 15.9782V20.2434H92.3209V20.3738H92.4426H92.3209V20.4782H93.2698V15.9782L93.2333 14.6086H93.1238V14.7391H93.1603V14.6086L93.0752 14.6739L96.4449 20.4782H97.4911V13.2H96.4327V17.4391L96.4692 18.7956H96.5787V18.6782H96.5422V18.8086L96.6395 18.7304L93.4158 13.2H92.2114V20.4782H92.3331V20.3608Z" fill="white"/>
</svg>
